<svg width="256" height="256" viewBox="0 0 256 256" fill="none" xmlns="http://www.w3.org/2000/svg">
<g clip-path="url(#clip0_1588_55)">
<path d="M80 144C102.091 144 120 126.091 120 104C120 81.9086 102.091 64 80 64C57.9086 64 40 81.9086 40 104C40 126.091 57.9086 144 80 144Z" stroke="#CC0033" stroke-width="15" stroke-linecap="round" stroke-linejoin="round"/>
<path d="M152 82H248" stroke="#CC0033" stroke-width="15" stroke-linecap="round" stroke-linejoin="round"/>
<path d="M164 130L248 130" stroke="#CC0033" stroke-width="15" stroke-linecap="round" stroke-linejoin="round"/>
<path d="M176 178H248" stroke="#CC0033" stroke-width="15" stroke-linecap="round" stroke-linejoin="round"/>
<path d="M18 192C21.5248 178.233 29.5312 166.031 40.757 157.318C51.9827 148.604 65.7893 143.875 80 143.875C94.2107 143.875 108.017 148.604 119.243 157.318C130.469 166.031 138.475 178.233 142 192" stroke="#CC0033" stroke-width="15" stroke-linecap="round" stroke-linejoin="round"/>
</g>
<defs>
<clipPath id="clip0_1588_55">
<rect width="256" height="256" fill="white"/>
</clipPath>
</defs>
</svg>
