<svg width="256" height="256" viewBox="0 0 256 256" fill="none" xmlns="http://www.w3.org/2000/svg">
<g clip-path="url(#clip0_2006_476)">
<path d="M154 82L248 82" stroke="#CC0033" stroke-width="15" stroke-linecap="round" stroke-linejoin="round"/>
<path d="M164 130L248 130" stroke="#CC0033" stroke-width="15" stroke-linecap="round" stroke-linejoin="round"/>
<path d="M176 178L248 178" stroke="#CC0033" stroke-width="15" stroke-linecap="round" stroke-linejoin="round"/>
<path d="M74.3437 160.529C85.8548 160.529 95.1863 151.197 95.1863 139.686C95.1863 128.175 85.8548 118.844 74.3437 118.844C62.8327 118.844 53.5011 128.175 53.5011 139.686C53.5011 151.197 62.8327 160.529 74.3437 160.529Z" stroke="#CC0033" stroke-width="9" stroke-linecap="round" stroke-linejoin="round"/>
<path d="M42.0376 185.54C43.8743 178.367 48.0462 172.009 53.8955 167.468C59.7449 162.928 66.939 160.463 74.3437 160.463C81.7484 160.463 88.9425 162.928 94.7919 167.468C100.641 172.009 104.813 178.367 106.65 185.54" stroke="#CC0033" stroke-width="9" stroke-linecap="round" stroke-linejoin="round"/>
<path d="M75.241 99.0091L85.5195 105.535C86.845 106.371 88.4765 105.127 88.0891 103.598L85.1116 91.8917C85.0311 91.5672 85.0439 91.2266 85.1485 90.9091C85.2531 90.5916 85.4453 90.3101 85.703 90.097L94.9209 82.4086C96.1242 81.4093 95.5124 79.3904 93.9421 79.2884L81.9098 78.5134C81.5815 78.4943 81.2658 78.38 81.0014 78.1844C80.7371 77.9889 80.5354 77.7205 80.421 77.4122L75.9344 66.1141C75.8156 65.7876 75.5993 65.5055 75.3147 65.3062C75.0301 65.1069 74.6911 65 74.3437 65C73.9963 65 73.6573 65.1069 73.3727 65.3062C73.0881 65.5055 72.8718 65.7876 72.753 66.1141L68.2664 77.4122C68.152 77.7205 67.9503 77.9889 67.686 78.1844C67.4216 78.38 67.1059 78.4943 66.7776 78.5134L54.7453 79.2884C53.175 79.3904 52.5632 81.4093 53.7664 82.4086L62.9844 90.097C63.242 90.3101 63.4343 90.5916 63.5389 90.9091C63.6435 91.2266 63.6563 91.5672 63.5758 91.8917L60.8227 102.741C60.3536 104.577 62.3114 106.065 63.8817 105.066L73.4464 99.0091C73.7146 98.8385 74.0259 98.748 74.3437 98.748C74.6615 98.748 74.9728 98.8385 75.241 99.0091Z" stroke="#CC0033" stroke-width="7" stroke-linecap="round" stroke-linejoin="round"/>
<path d="M26.4203 143.835C33.34 143.835 38.9495 138.225 38.9495 131.306C38.9495 124.386 33.34 118.777 26.4203 118.777C19.5006 118.777 13.8911 124.386 13.8911 131.306C13.8911 138.225 19.5006 143.835 26.4203 143.835Z" stroke="#CC0033" stroke-width="8" stroke-linecap="round" stroke-linejoin="round"/>
<path d="M7 158.87C8.10408 154.558 10.6119 150.736 14.1282 148.006C17.6444 145.277 21.969 143.796 26.4203 143.796C30.8715 143.796 35.1961 145.277 38.7123 148.006C42.2286 150.736 44.7364 154.558 45.8405 158.87" stroke="#CC0033" stroke-width="8" stroke-linecap="round" stroke-linejoin="round"/>
<path d="M26.8217 106.262L33.2475 110.342C34.0763 110.864 35.0963 110.087 34.854 109.13L32.9926 101.812C32.9422 101.609 32.9502 101.396 33.0156 101.198C33.0811 100.999 33.2012 100.823 33.3623 100.69L39.1252 95.8835C39.8774 95.2588 39.4949 93.9966 38.5132 93.9328L30.9908 93.4483C30.7856 93.4364 30.5883 93.3649 30.423 93.2426C30.2577 93.1204 30.1316 92.9526 30.0601 92.7598L27.2552 85.6965C27.1809 85.4924 27.0457 85.316 26.8678 85.1914C26.6898 85.0668 26.4779 85 26.2607 85C26.0435 85 25.8316 85.0668 25.6536 85.1914C25.4757 85.316 25.3405 85.4924 25.2662 85.6965L22.4613 92.7598C22.3898 92.9526 22.2637 93.1204 22.0984 93.2426C21.9331 93.3649 21.7358 93.4364 21.5306 93.4483L14.0082 93.9328C13.0265 93.9966 12.644 95.2588 13.3962 95.8835L19.1591 100.69C19.3202 100.823 19.4403 100.999 19.5058 101.198C19.5712 101.396 19.5792 101.609 19.5288 101.812L17.8076 108.595C17.5144 109.742 18.7384 110.673 19.7201 110.048L25.6997 106.262C25.8674 106.155 26.062 106.099 26.2607 106.099C26.4594 106.099 26.654 106.155 26.8217 106.262Z" stroke="#CC0033" stroke-width="5" stroke-linecap="round" stroke-linejoin="round"/>
<path d="M122.001 143.835C128.92 143.835 134.53 138.225 134.53 131.306C134.53 124.386 128.92 118.777 122.001 118.777C115.081 118.777 109.472 124.386 109.472 131.306C109.472 138.225 115.081 143.835 122.001 143.835Z" stroke="#CC0033" stroke-width="8" stroke-linecap="round" stroke-linejoin="round"/>
<path d="M102.58 158.87C103.685 154.558 106.192 150.736 109.709 148.006C113.225 145.277 117.55 143.796 122.001 143.796C126.452 143.796 130.777 145.277 134.293 148.006C137.809 150.736 140.317 154.558 141.421 158.87" stroke="#CC0033" stroke-width="8" stroke-linecap="round" stroke-linejoin="round"/>
<path d="M122.822 106.262L129.248 110.342C130.076 110.864 131.096 110.087 130.854 109.13L128.993 101.812C128.942 101.609 128.95 101.396 129.016 101.198C129.081 100.999 129.201 100.823 129.362 100.69L135.125 95.8835C135.877 95.2588 135.495 93.9966 134.513 93.9328L126.991 93.4483C126.786 93.4364 126.588 93.3649 126.423 93.2426C126.258 93.1204 126.132 92.9526 126.06 92.7598L123.255 85.6965C123.181 85.4924 123.046 85.316 122.868 85.1914C122.69 85.0668 122.478 85 122.261 85C122.043 85 121.832 85.0668 121.654 85.1914C121.476 85.316 121.34 85.4924 121.266 85.6965L118.461 92.7598C118.39 92.9526 118.264 93.1204 118.098 93.2426C117.933 93.3649 117.736 93.4364 117.531 93.4483L110.008 93.9328C109.026 93.9966 108.644 95.2588 109.396 95.8835L115.159 100.69C115.32 100.823 115.44 100.999 115.506 101.198C115.571 101.396 115.579 101.609 115.529 101.812L113.808 108.595C113.514 109.742 114.738 110.673 115.72 110.048L121.7 106.262C121.867 106.155 122.062 106.099 122.261 106.099C122.459 106.099 122.654 106.155 122.822 106.262Z" stroke="#CC0033" stroke-width="5" stroke-linecap="round" stroke-linejoin="round"/>
</g>
<defs>
<clipPath id="clip0_2006_476">
<rect width="256" height="256" fill="white"/>
</clipPath>
</defs>
</svg>
