<svg width="256" height="256" viewBox="0 0 256 256" fill="none" xmlns="http://www.w3.org/2000/svg">
<g clip-path="url(#clip0_1618_211)">
<path d="M154 82L248 82" stroke="#CC0033" stroke-width="15" stroke-linecap="round" stroke-linejoin="round"/>
<path d="M164 130L248 130" stroke="#CC0033" stroke-width="15" stroke-linecap="round" stroke-linejoin="round"/>
<path d="M176 178L248 178" stroke="#CC0033" stroke-width="15" stroke-linecap="round" stroke-linejoin="round"/>
<path d="M118.65 192H22.35C20.9311 192 19.5703 191.438 18.567 190.438C17.5637 189.438 17 188.081 17 186.667V69.3333C17 67.9188 17.5637 66.5623 18.567 65.5621C19.5703 64.5619 20.9311 64 22.35 64H86.55L124 101.333V186.667C124 188.081 123.436 189.438 122.433 190.438C121.43 191.438 120.069 192 118.65 192Z" stroke="#CC0033" stroke-width="14.5" stroke-linecap="round" stroke-linejoin="round"/>
<path d="M58.9759 171H43.568C42.8869 171 42.2338 170.729 41.7522 170.248C41.2706 169.766 41 169.113 41 168.432V154.083C40.9988 153.75 41.0635 153.42 41.1901 153.111C41.3168 152.803 41.5031 152.522 41.7383 152.286L80.258 113.766C80.497 113.523 80.7818 113.331 81.0959 113.199C81.41 113.068 81.7472 113 82.0877 113C82.4283 113 82.7654 113.068 83.0795 113.199C83.3936 113.331 83.6785 113.523 83.9174 113.766L98.2339 128.083C98.4765 128.322 98.6692 128.606 98.8007 128.92C98.9323 129.235 99 129.572 99 129.912C99 130.253 98.9323 130.59 98.8007 130.904C98.6692 131.218 98.4765 131.503 98.2339 131.742L58.9759 171Z" stroke="#CC0033" stroke-width="11" stroke-linecap="round" stroke-linejoin="round"/>
<path d="M98 171H59" stroke="#CC0033" stroke-width="11" stroke-linecap="round" stroke-linejoin="round"/>
<path d="M70 124L87 142" stroke="#CC0033" stroke-width="11" stroke-linecap="round" stroke-linejoin="round"/>
</g>
<defs>
<clipPath id="clip0_1618_211">
<rect width="256" height="256" fill="white"/>
</clipPath>
</defs>
</svg>
