<svg width="256" height="256" viewBox="0 0 256 256" fill="none" xmlns="http://www.w3.org/2000/svg">
<g clip-path="url(#clip0_2005_160)">
<path d="M154 82L248 82" stroke="#CC0033" stroke-width="15" stroke-linecap="round" stroke-linejoin="round"/>
<path d="M164 130L248 130" stroke="#CC0033" stroke-width="15" stroke-linecap="round" stroke-linejoin="round"/>
<path d="M176 178L248 178" stroke="#CC0033" stroke-width="15" stroke-linecap="round" stroke-linejoin="round"/>
<path d="M41.5739 170.367C52.0739 170.367 60.5858 161.855 60.5858 151.355C60.5858 140.855 52.0739 132.343 41.5739 132.343C31.074 132.343 22.5621 140.855 22.5621 151.355C22.5621 161.855 31.074 170.367 41.5739 170.367Z" stroke="#CC0033" stroke-width="11" stroke-linecap="round" stroke-linejoin="round"/>
<path d="M41.5739 95.0237C52.0739 95.0237 60.5858 86.5118 60.5858 76.0118C60.5858 65.5119 52.0739 57 41.5739 57C31.074 57 22.5621 65.5119 22.5621 76.0118C22.5621 86.5118 31.074 95.0237 41.5739 95.0237Z" stroke="#CC0033" stroke-width="11" stroke-linecap="round" stroke-linejoin="round"/>
<path d="M12 193.604C13.6813 186.957 17.5004 181.065 22.8551 176.858C28.2097 172.651 34.7955 170.367 41.574 170.367C48.3525 170.367 54.9382 172.651 60.2929 176.858C65.6475 181.065 69.4666 186.957 71.1479 193.604" stroke="#CC0033" stroke-width="11" stroke-linecap="round" stroke-linejoin="round"/>
<path d="M12 118.261C13.6813 111.614 17.5004 105.722 22.8551 101.515C28.2097 97.3076 34.7955 95.0239 41.574 95.0239C48.3525 95.0239 54.9382 97.3076 60.2929 101.515C65.6475 105.722 69.4666 111.614 71.1479 118.261" stroke="#CC0033" stroke-width="11" stroke-linecap="round" stroke-linejoin="round"/>
<path d="M71.8521 193.604C73.5334 186.957 77.3525 181.065 82.7071 176.858C88.0618 172.651 94.6475 170.367 101.426 170.367C108.205 170.367 114.79 172.651 120.145 176.858C125.5 181.065 129.319 186.957 131 193.604" stroke="#CC0033" stroke-width="11" stroke-linecap="round" stroke-linejoin="round"/>
<path d="M71.8521 118.261C73.5334 111.614 77.3525 105.722 82.7071 101.515C88.0618 97.3076 94.6475 95.0239 101.426 95.0239C108.205 95.0239 114.79 97.3076 120.145 101.515C125.5 105.722 129.319 111.614 131 118.261" stroke="#CC0033" stroke-width="11" stroke-linecap="round" stroke-linejoin="round"/>
<path d="M101.426 170.367C111.926 170.367 120.438 161.855 120.438 151.355C120.438 140.855 111.926 132.343 101.426 132.343C90.9261 132.343 82.4142 140.855 82.4142 151.355C82.4142 161.855 90.9261 170.367 101.426 170.367Z" stroke="#CC0033" stroke-width="11" stroke-linecap="round" stroke-linejoin="round"/>
<path d="M101.426 95.0237C111.926 95.0237 120.438 86.5118 120.438 76.0118C120.438 65.5119 111.926 57 101.426 57C90.9261 57 82.4142 65.5119 82.4142 76.0118C82.4142 86.5118 90.9261 95.0237 101.426 95.0237Z" stroke="#CC0033" stroke-width="11" stroke-linecap="round" stroke-linejoin="round"/>
</g>
<defs>
<clipPath id="clip0_2005_160">
<rect width="256" height="256" fill="white"/>
</clipPath>
</defs>
</svg>
