<svg width="256" height="256" viewBox="0 0 256 256" fill="none" xmlns="http://www.w3.org/2000/svg">
<g clip-path="url(#clip0_2006_378)">
<path d="M154 82L248 82" stroke="#CC0033" stroke-width="15" stroke-linecap="round" stroke-linejoin="round"/>
<path d="M164 130L248 130" stroke="#CC0033" stroke-width="15" stroke-linecap="round" stroke-linejoin="round"/>
<path d="M176 178L248 178" stroke="#CC0033" stroke-width="15" stroke-linecap="round" stroke-linejoin="round"/>
<path d="M31.863 76.9111H104.836C104.836 76.9111 98.7557 168.454 68.3499 168.454C53.4965 168.454 44.4479 146.609 39.0774 124.261C33.4539 100.862 31.863 76.9111 31.863 76.9111Z" stroke="#CC0033" stroke-width="11" stroke-linecap="round" stroke-linejoin="round"/>
<path d="M104.836 76.911C104.836 76.911 111.197 70.1254 116.484 70.0057C126.842 69.7712 128.757 76.911 128.757 76.911C130.784 81.1199 132.405 92.063 122.676 102.164C112.946 112.266 102.054 121.104 97.6216 124.261" stroke="#CC0033" stroke-width="10" stroke-linecap="round" stroke-linejoin="round"/>
<path d="M31.8623 76.9113C31.8623 76.9113 25.2347 70.0484 19.8105 70.0061C9.45261 69.9252 7.53772 76.9113 7.53772 76.9113C5.51062 81.1202 3.88899 92.0633 13.6189 102.165C23.3487 112.266 34.6448 121.105 39.0767 124.262" stroke="#CC0033" stroke-width="10" stroke-linecap="round" stroke-linejoin="round"/>
<path d="M44.0247 187.394C44.0247 174.768 68.3489 168.454 68.3489 168.454C68.3489 168.454 92.674 174.768 92.674 187.394H44.0247Z" stroke="#CC0033" stroke-width="10" stroke-linecap="round" stroke-linejoin="round"/>
<path d="M68.967 125.595L77.5783 131.063C78.6889 131.763 80.0558 130.721 79.7312 129.44L77.2366 119.632C77.1692 119.36 77.1799 119.075 77.2675 118.809C77.3552 118.543 77.5162 118.307 77.7321 118.129L85.455 111.687C86.4631 110.85 85.9505 109.158 84.6349 109.073L74.5541 108.424C74.279 108.408 74.0146 108.312 73.7931 108.148C73.5716 107.984 73.4026 107.759 73.3068 107.501L69.5479 98.0354C69.4484 97.7619 69.2671 97.5256 69.0287 97.3586C68.7903 97.1916 68.5063 97.1021 68.2152 97.1021C67.9241 97.1021 67.6401 97.1916 67.4017 97.3586C67.1632 97.5256 66.982 97.7619 66.8825 98.0354L63.1235 107.501C63.0277 107.759 62.8588 107.984 62.6373 108.148C62.4157 108.312 62.1513 108.408 61.8763 108.424L51.7955 109.073C50.4799 109.158 49.9673 110.85 50.9754 111.687L58.6983 118.129C58.9141 118.307 59.0751 118.543 59.1628 118.809C59.2505 119.075 59.2612 119.36 59.1937 119.632L56.8871 128.722C56.4942 130.26 58.1344 131.507 59.45 130.67L67.4634 125.595C67.6881 125.452 67.9489 125.376 68.2152 125.376C68.4815 125.376 68.7423 125.452 68.967 125.595Z" stroke="#CC0033" stroke-width="7" stroke-linecap="round" stroke-linejoin="round"/>
</g>
<defs>
<clipPath id="clip0_2006_378">
<rect width="256" height="256" fill="white"/>
</clipPath>
</defs>
</svg>
