<svg fill="none" height="256" viewBox="0 0 256 256" width="256" xmlns="http://www.w3.org/2000/svg" xmlns:xlink="http://www.w3.org/1999/xlink"><clipPath id="a"><path d="m0 0h256v256h-256z"/></clipPath><g clip-path="url(#a)" stroke="#c03" stroke-linecap="round" stroke-linejoin="round"><g stroke-width="15"><path d="m154 82h94"/><path d="m164 130h84"/><path d="m176 178h72"/><path d="m47 191h49"/></g><path d="m71 171v-34" stroke-width="13"/><path d="m52 117 19.5 20 19.5-20" stroke-width="13"/><path d="m40.8047 150.753c-5.8337-4.544-10.5584-10.358-13.8164-17.002-3.2579-6.644-4.9636-13.944-4.9878-21.346-.1225-26.6282 21.2542-48.7776 47.8372-49.3912 10.2882-.2443 20.392 2.7623 28.8785 8.5933 8.4868 5.831 14.9248 14.1905 18.4018 23.8928 3.477 9.7021 3.817 20.2551.97 30.1611-2.846 9.907-8.734 18.664-16.828 25.03-1.7884 1.385-3.2367 3.16-4.2346 5.191-.998 2.032-1.519 4.264-1.5234 6.528v3.682c0 1.301-.5162 2.55-1.4352 3.47-.9189.921-2.1653 1.438-3.4649 1.438h-39.2008c-1.2996 0-2.5459-.517-3.4649-1.438-.9189-.92-1.4352-2.169-1.4352-3.47v-3.682c-.0153-2.247-.5353-4.461-1.5214-6.479s-2.413-3.788-4.1749-5.178z" stroke-width="14"/></g></svg>