<svg width="256" height="256" viewBox="0 0 256 256" fill="none" xmlns="http://www.w3.org/2000/svg">
<g clip-path="url(#clip0_2006_282)">
<path d="M154 82L248 82" stroke="#CC0033" stroke-width="15" stroke-linecap="round" stroke-linejoin="round"/>
<path d="M164 130L248 130" stroke="#CC0033" stroke-width="15" stroke-linecap="round" stroke-linejoin="round"/>
<path d="M176 178L248 178" stroke="#CC0033" stroke-width="15" stroke-linecap="round" stroke-linejoin="round"/>
<path d="M36.3277 191.774C47.5544 191.774 56.6554 182.673 56.6554 171.447C56.6554 160.22 47.5544 151.119 36.3277 151.119C25.101 151.119 16 160.22 16 171.447C16 182.673 25.101 191.774 36.3277 191.774Z" stroke="#CC0033" stroke-width="13" stroke-linecap="round" stroke-linejoin="round"/>
<path d="M36.3277 104.655C47.5544 104.655 56.6554 95.5544 56.6554 84.3277C56.6554 73.101 47.5544 64 36.3277 64C25.101 64 16 73.101 16 84.3277C16 95.5544 25.101 104.655 36.3277 104.655Z" stroke="#CC0033" stroke-width="13" stroke-linecap="round" stroke-linejoin="round"/>
<path d="M36.3277 104.656V151.119" stroke="#CC0033" stroke-width="13" stroke-linecap="round" stroke-linejoin="round"/>
<path d="M57.057 162.652L84.4621 152.83C93.1731 149.694 100.287 143.234 104.245 134.865L120.863 99.6802" stroke="#CC0033" stroke-width="13" stroke-linecap="round" stroke-linejoin="round"/>
<path d="M93.5261 109.478L120.863 99.6802L130.661 127.017" stroke="#CC0033" stroke-width="13" stroke-linecap="round" stroke-linejoin="round"/>
</g>
<defs>
<clipPath id="clip0_2006_282">
<rect width="256" height="256" fill="white"/>
</clipPath>
</defs>
</svg>
