<svg width="256" height="256" viewBox="0 0 256 256" fill="none" xmlns="http://www.w3.org/2000/svg">
<g clip-path="url(#clip0_1588_48)">
<path d="M154 82L248 82" stroke="#CC0033" stroke-width="15" stroke-linecap="round" stroke-linejoin="round"/>
<path d="M164 130L248 130" stroke="#CC0033" stroke-width="15" stroke-linecap="round" stroke-linejoin="round"/>
<path d="M176 178L248 178" stroke="#CC0033" stroke-width="15" stroke-linecap="round" stroke-linejoin="round"/>
<path d="M18.0001 190.5C17.9914 188.494 18.3967 177.005 19.1926 175.15C19.9885 173.295 21.1594 171.609 22.6376 170.19C24.1158 168.771 25.8721 167.648 27.8051 166.884C29.7381 166.12 31.8096 165.731 33.9001 165.739H124V64.0001H33.9001C31.8096 63.9917 29.7381 64.3807 27.8051 65.1447C25.8721 65.9086 24.1158 67.0324 22.6376 68.4512C21.1594 69.87 19.9885 71.5556 19.1926 73.411C18.3967 75.2663 17.9914 77.2545 18.0001 79.261L18.0001 190.5Z" stroke="#CC0033" stroke-width="15" stroke-linecap="round" stroke-linejoin="round"/>
<path d="M18 187V192H114" stroke="#CC0033" stroke-width="15" stroke-linecap="round" stroke-linejoin="round"/>
</g>
<defs>
<clipPath id="clip0_1588_48">
<rect width="256" height="256" fill="white"/>
</clipPath>
</defs>
</svg>
