<svg width="256" height="256" viewBox="0 0 256 256" fill="none" xmlns="http://www.w3.org/2000/svg">
<g clip-path="url(#clip0_1993_1092)">
<path d="M128.217 185.759C146.986 185.759 162.201 170.544 162.201 151.775C162.201 133.007 146.986 117.792 128.217 117.792C109.448 117.792 94.2334 133.007 94.2334 151.775C94.2334 170.544 109.448 185.759 128.217 185.759Z" stroke="#CC0033" stroke-width="13" stroke-linecap="round" stroke-linejoin="round"/>
<path d="M75.5423 226.54C78.5369 214.844 85.3391 204.477 94.8765 197.074C104.414 189.671 116.144 185.653 128.217 185.653C140.291 185.653 152.021 189.671 161.558 197.074C171.095 204.477 177.897 214.844 180.892 226.54" stroke="#CC0033" stroke-width="13" stroke-linecap="round" stroke-linejoin="round"/>
<path d="M129.68 85.4517L146.439 96.0923C148.601 97.4557 151.261 95.4273 150.629 92.9334L145.774 73.8468C145.643 73.3178 145.664 72.7624 145.834 72.2447C146.005 71.727 146.318 71.268 146.738 70.9207L161.768 58.3847C163.73 56.7554 162.733 53.4634 160.172 53.2972L140.554 52.0336C140.018 52.0025 139.504 51.8161 139.073 51.4972C138.642 51.1783 138.313 50.7408 138.126 50.238L130.811 31.8165C130.617 31.2841 130.264 30.8242 129.8 30.4993C129.336 30.1743 128.784 30 128.217 30C127.651 30 127.098 30.1743 126.634 30.4993C126.17 30.8242 125.817 31.2841 125.624 31.8165L118.308 50.238C118.122 50.7408 117.793 51.1783 117.362 51.4972C116.931 51.8161 116.416 52.0025 115.881 52.0336L96.2621 53.2972C93.7017 53.4634 92.7042 56.7554 94.666 58.3847L109.696 70.9207C110.116 71.268 110.429 71.727 110.6 72.2447C110.771 72.7624 110.791 73.3178 110.66 73.8468L106.171 91.5368C105.406 94.5295 108.599 96.9569 111.159 95.3275L126.754 85.4517C127.191 85.1737 127.699 85.026 128.217 85.026C128.735 85.026 129.243 85.1737 129.68 85.4517Z" stroke="#CC0033" stroke-width="9.3" stroke-linecap="round" stroke-linejoin="round"/>
<path d="M42.0638 155.909C54.5574 155.909 64.6855 145.781 64.6855 133.287C64.6855 120.793 54.5574 110.665 42.0638 110.665C29.5701 110.665 19.442 120.793 19.442 133.287C19.442 145.781 29.5701 155.909 42.0638 155.909Z" stroke="#CC0033" stroke-width="11.3" stroke-linecap="round" stroke-linejoin="round"/>
<path d="M7 183.055C8.99344 175.269 13.5214 168.369 19.8701 163.441C26.2187 158.513 34.0269 155.838 42.0637 155.838C50.1005 155.838 57.9087 158.513 64.2574 163.441C70.606 168.369 75.134 175.269 77.1274 183.055" stroke="#CC0033" stroke-width="11.3" stroke-linecap="round" stroke-linejoin="round"/>
<path d="M43.0376 86.2051L54.1934 93.2882C55.6321 94.1957 57.4029 92.8455 56.9824 91.1854L53.7507 78.4802C53.6633 78.128 53.6772 77.7583 53.7908 77.4137C53.9044 77.0691 54.113 76.7635 54.3926 76.5323L64.3974 68.1876C65.7034 67.103 65.0393 64.9117 63.335 64.801L50.2756 63.9599C49.9193 63.9392 49.5767 63.8151 49.2897 63.6028C49.0028 63.3906 48.7839 63.0993 48.6598 62.7646L43.7902 50.5021C43.6613 50.1478 43.4264 49.8416 43.1176 49.6253C42.8087 49.409 42.4408 49.293 42.0637 49.293C41.6866 49.293 41.3186 49.409 41.0098 49.6253C40.7009 49.8416 40.4661 50.1478 40.3372 50.5021L35.4676 62.7646C35.3435 63.0993 35.1246 63.3906 34.8376 63.6028C34.5507 63.8151 34.2081 63.9392 33.8518 63.9599L20.7924 64.801C19.088 64.9117 18.424 67.103 19.7299 68.1876L29.7348 76.5323C30.0144 76.7635 30.223 77.0691 30.3366 77.4137C30.4501 77.7583 30.464 78.128 30.3767 78.4802L27.3885 90.2557C26.8794 92.2478 29.0043 93.8637 30.7087 92.7791L41.0898 86.2051C41.3809 86.02 41.7187 85.9217 42.0637 85.9217C42.4087 85.9217 42.7465 86.02 43.0376 86.2051Z" stroke="#CC0033" stroke-width="7.7" stroke-linecap="round" stroke-linejoin="round"/>
<path d="M213.936 155.909C226.43 155.909 236.558 145.781 236.558 133.287C236.558 120.793 226.43 110.665 213.936 110.665C201.443 110.665 191.315 120.793 191.315 133.287C191.315 145.781 201.443 155.909 213.936 155.909Z" stroke="#CC0033" stroke-width="11.3" stroke-linecap="round" stroke-linejoin="round"/>
<path d="M178.873 183.055C180.866 175.269 185.394 168.369 191.743 163.441C198.091 158.513 205.9 155.838 213.936 155.838C221.973 155.838 229.781 158.513 236.13 163.441C242.479 168.369 247.007 175.269 249 183.055" stroke="#CC0033" stroke-width="11.3" stroke-linecap="round" stroke-linejoin="round"/>
<path d="M214.91 86.2051L226.066 93.2882C227.505 94.1957 229.276 92.8455 228.855 91.1854L225.623 78.4802C225.536 78.128 225.55 77.7583 225.663 77.4137C225.777 77.0691 225.986 76.7635 226.265 76.5323L236.27 68.1876C237.576 67.103 236.912 64.9117 235.208 64.801L222.148 63.9599C221.792 63.9392 221.449 63.8151 221.162 63.6028C220.875 63.3906 220.657 63.0993 220.532 62.7646L215.663 50.5021C215.534 50.1478 215.299 49.8416 214.99 49.6253C214.681 49.409 214.313 49.293 213.936 49.293C213.559 49.293 213.191 49.409 212.882 49.6253C212.574 49.8416 212.339 50.1478 212.21 50.5021L207.34 62.7646C207.216 63.0993 206.997 63.3906 206.71 63.6028C206.423 63.8151 206.081 63.9392 205.724 63.9599L192.665 64.801C190.961 64.9117 190.297 67.103 191.603 68.1876L201.607 76.5323C201.887 76.7635 202.096 77.0691 202.209 77.4137C202.323 77.7583 202.337 78.128 202.249 78.4802L199.261 90.2557C198.752 92.2478 200.877 93.8637 202.581 92.7791L212.962 86.2051C213.254 86.02 213.591 85.9217 213.936 85.9217C214.281 85.9217 214.619 86.02 214.91 86.2051Z" stroke="#CC0033" stroke-width="7.7" stroke-linecap="round" stroke-linejoin="round"/>
</g>
<defs>
<clipPath id="clip0_1993_1092">
<rect width="256" height="256" fill="white"/>
</clipPath>
</defs>
</svg>
