<svg width="256" height="256" viewBox="0 0 256 256" fill="none" xmlns="http://www.w3.org/2000/svg">
<g clip-path="url(#clip0_2005_147)">
<path d="M84.4911 194.716C99.9322 194.716 112.45 182.199 112.45 166.757C112.45 151.316 99.9322 138.799 84.4911 138.799C69.05 138.799 56.5325 151.316 56.5325 166.757C56.5325 182.199 69.05 194.716 84.4911 194.716Z" stroke="#CC0033" stroke-width="13" stroke-linecap="round" stroke-linejoin="round"/>
<path d="M84.4911 83.9172C99.9322 83.9172 112.45 71.3997 112.45 55.9586C112.45 40.5175 99.9322 28 84.4911 28C69.05 28 56.5325 40.5175 56.5325 55.9586C56.5325 71.3997 69.05 83.9172 84.4911 83.9172Z" stroke="#CC0033" stroke-width="13" stroke-linecap="round" stroke-linejoin="round"/>
<path d="M41 228.887C43.4726 219.112 49.0888 210.448 56.9633 204.261C64.8378 198.074 74.5227 194.716 84.4911 194.716C94.4595 194.716 104.144 198.074 112.019 204.261C119.893 210.448 125.51 219.112 127.982 228.887" stroke="#CC0033" stroke-width="13" stroke-linecap="round" stroke-linejoin="round"/>
<path d="M41 118.089C43.4726 108.314 49.0888 99.6495 56.9633 93.4624C64.8378 87.2753 74.5227 83.917 84.4911 83.917C94.4595 83.917 104.144 87.2753 112.019 93.4624C119.893 99.6495 125.51 108.314 127.982 118.089" stroke="#CC0033" stroke-width="13" stroke-linecap="round" stroke-linejoin="round"/>
<path d="M129.018 228.887C131.49 219.112 137.107 210.448 144.981 204.261C152.856 198.074 162.54 194.716 172.509 194.716C182.477 194.716 192.162 198.074 200.037 204.261C207.911 210.448 213.527 219.112 216 228.887" stroke="#CC0033" stroke-width="13" stroke-linecap="round" stroke-linejoin="round"/>
<path d="M129.018 118.089C131.49 108.314 137.107 99.6495 144.981 93.4624C152.856 87.2753 162.54 83.917 172.509 83.917C182.477 83.917 192.162 87.2753 200.037 93.4624C207.911 99.6495 213.527 108.314 216 118.089" stroke="#CC0033" stroke-width="13" stroke-linecap="round" stroke-linejoin="round"/>
<path d="M172.509 194.716C187.95 194.716 200.467 182.199 200.467 166.757C200.467 151.316 187.95 138.799 172.509 138.799C157.068 138.799 144.55 151.316 144.55 166.757C144.55 182.199 157.068 194.716 172.509 194.716Z" stroke="#CC0033" stroke-width="13" stroke-linecap="round" stroke-linejoin="round"/>
<path d="M172.509 83.9172C187.95 83.9172 200.467 71.3997 200.467 55.9586C200.467 40.5175 187.95 28 172.509 28C157.068 28 144.55 40.5175 144.55 55.9586C144.55 71.3997 157.068 83.9172 172.509 83.9172Z" stroke="#CC0033" stroke-width="13" stroke-linecap="round" stroke-linejoin="round"/>
</g>
<defs>
<clipPath id="clip0_2005_147">
<rect width="256" height="256" fill="white"/>
</clipPath>
</defs>
</svg>
