<svg width="256" height="256" viewBox="0 0 256 256" fill="none" xmlns="http://www.w3.org/2000/svg">
<g clip-path="url(#clip0_1588_13)">
<path d="M88 232H168" stroke="#CC0033" stroke-width="16" stroke-linecap="round" stroke-linejoin="round"/>
<path d="M128 200V144" stroke="#CC0033" stroke-width="16" stroke-linecap="round" stroke-linejoin="round"/>
<path d="M96 112L128 144L160 112" stroke="#CC0033" stroke-width="16" stroke-linecap="round" stroke-linejoin="round"/>
<path d="M78.6999 167C69.1758 159.595 61.4621 150.119 56.1431 139.29C50.8241 128.461 48.0394 116.564 47.9999 104.5C47.7999 61.1 82.6999 25 126.1 24C142.897 23.6018 159.392 28.5021 173.247 38.0057C187.103 47.5093 197.614 61.1339 203.291 76.9472C208.968 92.7604 209.522 109.96 204.875 126.106C200.227 142.251 190.615 156.524 177.4 166.9C174.481 169.156 172.116 172.051 170.487 175.361C168.858 178.671 168.007 182.31 168 186V192C168 194.122 167.157 196.157 165.657 197.657C164.156 199.157 162.122 200 160 200H95.9999C93.8781 200 91.8433 199.157 90.343 197.657C88.8427 196.157 87.9999 194.122 87.9999 192V186C87.9748 182.338 87.1259 178.729 85.516 175.44C83.906 172.151 81.5764 169.266 78.6999 167Z" stroke="#CC0033" stroke-width="16" stroke-linecap="round" stroke-linejoin="round"/>
</g>
<defs>
<clipPath id="clip0_1588_13">
<rect width="256" height="256" fill="white"/>
</clipPath>
</defs>
</svg>
