<svg width="256" height="256" viewBox="0 0 256 256" fill="none" xmlns="http://www.w3.org/2000/svg">
<path d="M67.1082 40.5891H189.571C189.571 40.5891 179.366 194.215 128.34 194.215C103.413 194.215 88.2279 157.555 79.2152 120.051C69.7781 80.7821 67.1082 40.5891 67.1082 40.5891Z" stroke="#CC0033" stroke-width="13.5" stroke-linecap="round" stroke-linejoin="round"/>
<path d="M189.57 40.5888C189.57 40.5888 200.245 29.2014 209.117 29.0005C226.499 28.6069 229.713 40.5888 229.713 40.5888C233.115 47.6521 235.836 66.0166 219.508 82.9686C203.179 99.9204 184.901 114.753 177.463 120.05" stroke="#CC0033" stroke-width="13" stroke-linecap="round" stroke-linejoin="round"/>
<path d="M67.1071 40.5894C67.1071 40.5894 55.9847 29.0723 46.882 29.0012C29.4997 28.8655 26.2861 40.5894 26.2861 40.5894C22.8843 47.6527 20.1629 66.0172 36.4914 82.9691C52.8198 99.921 71.7767 114.754 79.2141 120.052" stroke="#CC0033" stroke-width="13.5" stroke-linecap="round" stroke-linejoin="round"/>
<path d="M87.5178 226C87.5178 204.81 128.338 194.215 128.338 194.215C128.338 194.215 169.16 204.81 169.16 226H87.5178Z" stroke="#CC0033" stroke-width="13" stroke-linecap="round" stroke-linejoin="round"/>
<path d="M129.375 122.29L143.827 131.465C145.69 132.641 147.984 130.892 147.44 128.741L143.253 112.283C143.14 111.826 143.158 111.348 143.305 110.901C143.452 110.455 143.723 110.059 144.085 109.759L157.045 98.9496C158.737 97.5446 157.877 94.7059 155.669 94.5625L138.752 93.4729C138.29 93.4461 137.846 93.2853 137.474 93.0104C137.103 92.7354 136.819 92.3581 136.658 91.9246L130.35 76.0395C130.183 75.5804 129.879 75.1839 129.479 74.9037C129.079 74.6235 128.602 74.4731 128.114 74.4731C127.625 74.4731 127.149 74.6235 126.748 74.9037C126.348 75.1839 126.044 75.5804 125.877 76.0395L119.569 91.9246C119.408 92.3581 119.125 92.7354 118.753 93.0104C118.381 93.2853 117.937 93.4461 117.476 93.4729L100.559 94.5625C98.3507 94.7059 97.4905 97.5446 99.1822 98.9496L112.143 109.759C112.505 110.059 112.775 110.455 112.922 110.901C113.069 111.348 113.087 111.826 112.974 112.283L109.103 127.537C108.444 130.118 111.196 132.211 113.404 130.806L126.852 122.29C127.229 122.05 127.667 121.923 128.114 121.923C128.561 121.923 128.998 122.05 129.375 122.29Z" stroke="#CC0033" stroke-width="9.3" stroke-linecap="round" stroke-linejoin="round"/>
</svg>
