<svg width="256" height="256" viewBox="0 0 256 256" fill="none" xmlns="http://www.w3.org/2000/svg">
<g clip-path="url(#clip0_1618_174)">
<path d="M200 224H56C53.8783 224 51.8434 223.157 50.3431 221.657C48.8429 220.157 48 218.122 48 216V40C48 37.8783 48.8429 35.8434 50.3431 34.3431C51.8434 32.8429 53.8783 32 56 32H152L208 88V216C208 218.122 207.157 220.157 205.657 221.657C204.157 223.157 202.122 224 200 224Z" stroke="#CC0033" stroke-width="16" stroke-linecap="round" stroke-linejoin="round"/>
<path d="M111.274 193H87.8963C86.8629 193 85.8719 192.59 85.1412 191.859C84.4105 191.128 84 190.137 84 189.104V167.333C83.9982 166.828 84.0963 166.326 84.2885 165.858C84.4807 165.39 84.7633 164.965 85.1202 164.606L143.564 106.162C143.926 105.794 144.359 105.502 144.835 105.302C145.312 105.103 145.823 105 146.34 105C146.857 105 147.368 105.103 147.845 105.302C148.321 105.502 148.754 105.794 149.116 106.162L170.838 127.884C171.206 128.246 171.498 128.679 171.698 129.155C171.897 129.632 172 130.143 172 130.66C172 131.177 171.897 131.688 171.698 132.165C171.498 132.641 171.206 133.074 170.838 133.436L111.274 193Z" stroke="#CC0033" stroke-width="13" stroke-linecap="round" stroke-linejoin="round"/>
<path d="M170 193H111" stroke="#CC0033" stroke-width="13" stroke-linecap="round" stroke-linejoin="round"/>
<path d="M131 119L158 146" stroke="#CC0033" stroke-width="13" stroke-linecap="round" stroke-linejoin="round"/>
</g>
<defs>
<clipPath id="clip0_1618_174">
<rect width="256" height="256" fill="white"/>
</clipPath>
</defs>
</svg>
