<svg width="256" height="256" viewBox="0 0 256 256" fill="none" xmlns="http://www.w3.org/2000/svg">
<g clip-path="url(#clip0_1588_9)">
<path d="M48 216C47.9867 212.845 48.5985 209.718 49.7999 206.8C51.0013 203.882 52.7687 201.231 54.9999 199C57.2312 196.769 59.8821 195.001 62.7999 193.8C65.7177 192.598 68.8445 191.987 72 192H208V32H72C68.8445 31.9867 65.7177 32.5985 62.7999 33.7999C59.8821 35.0013 57.2312 36.7687 54.9999 38.9999C52.7687 41.2312 51.0013 43.8821 49.7999 46.7999C48.5985 49.7177 47.9867 52.8445 48 56V216Z" stroke="#CC0033" stroke-width="16" stroke-linecap="round" stroke-linejoin="round"/>
<path d="M48 216V224H192" stroke="#CC0033" stroke-width="16" stroke-linecap="round" stroke-linejoin="round"/>
</g>
<defs>
<clipPath id="clip0_1588_9">
<rect width="256" height="256" fill="white"/>
</clipPath>
</defs>
</svg>
