<svg width="250" height="250" viewBox="0 0 250 250" fill="none" xmlns="http://www.w3.org/2000/svg">
<g clip-path="url(#clip0_2051_895)">
<rect width="250" height="250" fill="#CC0033"/>
<path d="M40.9359 183.54L121.177 227.764C122.339 228.397 123.653 228.703 124.984 228.652C126.316 228.602 127.619 228.196 128.762 227.476L209.595 176.105C210.699 175.42 211.612 174.457 212.243 173.313C212.874 172.168 213.2 170.882 213.189 169.583L213.456 73.808C213.454 72.4571 213.102 71.1387 212.433 69.9856C211.765 68.8326 210.804 67.8857 209.649 67.2405L129.408 23.0162C128.246 22.3838 126.932 22.0774 125.6 22.128C124.268 22.1786 122.965 22.5844 121.822 23.3044L40.9895 74.6759C39.886 75.3602 38.9729 76.3231 38.342 77.4678C37.7111 78.6125 37.3846 79.8987 37.3953 81.1971L37.1286 176.972C37.1303 178.323 37.4831 179.642 38.1516 180.795C38.82 181.948 39.7804 182.895 40.9359 183.54Z" fill="#FFFEFE" stroke="white" stroke-width="10.8613" stroke-linecap="round" stroke-linejoin="round"/>
<path d="M123.438 187.744L123.705 127.668L72.0802 97.8626L71.8127 157.938L123.438 187.744Z" fill="#CC0033"/>
<path d="M126.763 181.528L126.704 122.66L178.203 92.4318" stroke="#CC0033" stroke-width="10.5973" stroke-linecap="round" stroke-linejoin="round"/>
<path d="M122.718 121.932L81.4181 98.0877" stroke="#CC0033" stroke-width="10.5973" stroke-linecap="round" stroke-linejoin="round"/>
<path d="M75.4116 156.314L123.053 183.82C123.743 184.213 124.526 184.417 125.322 184.41C126.117 184.404 126.898 184.186 127.585 183.781L176.181 154.846C176.844 154.461 177.395 153.909 177.779 153.244C178.163 152.578 178.366 151.825 178.368 151.058L179.128 94.5054C179.136 93.7077 178.934 92.923 178.542 92.2305C178.15 91.538 177.582 90.9623 176.896 90.5612L129.255 63.0554C128.564 62.6618 127.782 62.4581 126.986 62.4649C126.19 62.4717 125.41 62.6887 124.722 63.0941L76.1271 92.0289C75.4638 92.4139 74.9125 92.9667 74.5285 93.6317C74.1445 94.2968 73.9415 95.0506 73.9397 95.8176L73.1791 152.37C73.1716 153.168 73.3741 153.952 73.766 154.645C74.158 155.337 74.7256 155.913 75.4116 156.314Z" stroke="#CC0033" stroke-width="10.5973" stroke-linecap="round" stroke-linejoin="round"/>
</g>
<defs>
<clipPath id="clip0_2051_895">
<rect width="250" height="250" fill="white"/>
</clipPath>
</defs>
</svg>
