<svg width="250" height="250" viewBox="0 0 250 250" fill="none" xmlns="http://www.w3.org/2000/svg">
<g clip-path="url(#clip0_2047_885)">
<rect width="250" height="250" fill="#CC0033"/>
<path d="M40.9361 183.54L121.177 227.764C122.339 228.397 123.653 228.703 124.984 228.652C126.316 228.602 127.619 228.196 128.762 227.476L209.595 176.105C210.699 175.42 211.612 174.457 212.243 173.313C212.874 172.168 213.2 170.882 213.189 169.583L213.456 73.808C213.454 72.4571 213.102 71.1386 212.433 69.9856C211.765 68.8326 210.804 67.8857 209.649 67.2405L129.408 23.0161C128.246 22.3837 126.932 22.0774 125.6 22.128C124.269 22.1786 122.965 22.5843 121.822 23.3043L40.9896 74.6758C39.8861 75.3601 38.973 76.323 38.3421 77.4678C37.7112 78.6125 37.3847 79.8987 37.3954 81.1971L37.1287 176.972C37.1304 178.323 37.4832 179.642 38.1517 180.795C38.8201 181.948 39.7805 182.895 40.9361 183.54Z" fill="#FFFEFE" stroke="white" stroke-width="10.8613" stroke-linecap="round" stroke-linejoin="round"/>
<path d="M80.342 153.825L122.477 178.151C123.087 178.499 123.779 178.679 124.483 178.673C125.187 178.667 125.877 178.475 126.485 178.117L169.463 152.527C170.05 152.186 170.537 151.697 170.877 151.109C171.216 150.521 171.396 149.854 171.398 149.176L172.07 99.1605C172.077 98.4549 171.898 97.7609 171.551 97.1485C171.205 96.5361 170.703 96.0269 170.096 95.6722L127.961 71.3457C127.351 70.9976 126.659 70.8175 125.955 70.8235C125.251 70.8295 124.561 71.0215 123.953 71.38L80.9748 96.9702C80.3881 97.3107 79.9005 97.7996 79.561 98.3878C79.2214 98.9759 79.0418 99.6427 79.0402 100.321L78.3676 150.336C78.3609 151.042 78.54 151.736 78.8866 152.348C79.2333 152.961 79.7353 153.47 80.342 153.825Z" stroke="#CC0033" stroke-width="12.96" stroke-linecap="round" stroke-linejoin="round"/>
<path d="M125.508 175.206L124.482 125.423L171.101 96.8308" stroke="#CC0033" stroke-width="12.96" stroke-linecap="round" stroke-linejoin="round"/>
<path d="M125.229 125.867L79.6467 98.241" stroke="#CC0033" stroke-width="9.37238" stroke-linecap="round" stroke-linejoin="round"/>
<path d="M124.96 117.551L92.4484 98.7806L125.231 79.6591L157.742 98.4291L124.96 117.551Z" fill="#CC0033" stroke="#CC0033" stroke-width="13.1803"/>
</g>
<defs>
<clipPath id="clip0_2047_885">
<rect width="250" height="250" fill="white"/>
</clipPath>
</defs>
</svg>
