<svg width="256" height="256" viewBox="0 0 256 256" fill="none" xmlns="http://www.w3.org/2000/svg">
<path fill-rule="evenodd" clip-rule="evenodd" d="M56 40H199V201H170.867V217H199C207.837 217 215 209.837 215 201V40C215 31.1634 207.837 24 199 24H56C47.1634 24 40 31.1634 40 40V201C40 209.837 47.1634 217 56 217H133.84V201H56L56 40Z" fill="#CC0033"/>
<path d="M176.316 154C176.316 168.048 164.852 179.5 150.632 179.5C136.412 179.5 124.948 168.048 124.948 154C124.948 139.952 136.412 128.5 150.632 128.5C164.852 128.5 176.316 139.952 176.316 154Z" stroke="#CC0033" stroke-width="13"/>
<path d="M170.747 170V229L150.632 212.611L130.517 229V170" stroke="#CC0033" stroke-width="13"/>
</svg>
