<svg width="32" height="32" viewBox="0 0 32 32" fill="none" xmlns="http://www.w3.org/2000/svg">
<g clip-path="url(#clip0_2047_766)">
<path d="M21.2051 24.646L21.2348 17.971L15.4987 14.6592L15.4689 21.3342L21.2051 24.646Z" fill="#CC0033"/>
<path d="M21.5745 23.9554L21.5679 17.4145L27.29 14.0558" stroke="#CC0033" stroke-width="1.17748" stroke-linecap="round" stroke-linejoin="round"/>
<path d="M21.125 17.3336L16.5361 14.6842" stroke="#CC0033" stroke-width="1.17748" stroke-linecap="round" stroke-linejoin="round"/>
<path d="M15.8687 21.1538L21.1622 24.21C21.2389 24.2537 21.3258 24.2764 21.4142 24.2756C21.5026 24.2748 21.5894 24.2507 21.6657 24.2057L27.0652 20.9907C27.1389 20.9479 27.2002 20.8865 27.2429 20.8126C27.2855 20.7387 27.3081 20.655 27.3083 20.5698L27.3928 14.2862C27.3936 14.1975 27.3711 14.1103 27.3276 14.0334C27.284 13.9565 27.221 13.8925 27.1447 13.8479L21.8512 10.7917C21.7745 10.748 21.6876 10.7254 21.5992 10.7261C21.5108 10.7269 21.424 10.751 21.3477 10.796L15.9482 14.011C15.8745 14.0538 15.8132 14.1152 15.7706 14.1891C15.7279 14.263 15.7053 14.3468 15.7051 14.432L15.6206 20.7155C15.6198 20.8042 15.6423 20.8914 15.6858 20.9683C15.7294 21.0453 15.7925 21.1092 15.8687 21.1538Z" stroke="#CC0033" stroke-width="1.17748" stroke-linecap="round" stroke-linejoin="round"/>
<path d="M12.4292 23.8615L21.1282 28.6559C21.2542 28.7245 21.3966 28.7577 21.541 28.7522C21.6854 28.7467 21.8266 28.7027 21.9506 28.6247L30.7137 23.0554C30.8333 22.9813 30.9323 22.8769 31.0007 22.7528C31.0691 22.6287 31.1045 22.4892 31.1033 22.3485L31.1323 11.9654C31.1321 11.8189 31.0938 11.676 31.0214 11.551C30.9489 11.426 30.8448 11.3234 30.7195 11.2534L22.0206 6.45901C21.8945 6.39045 21.7521 6.35724 21.6078 6.36272C21.4634 6.36821 21.3221 6.4122 21.1982 6.49025L12.435 12.0595C12.3154 12.1337 12.2164 12.238 12.148 12.3621C12.0796 12.4862 12.0442 12.6257 12.0454 12.7665L12.0165 23.1495C12.0167 23.296 12.0549 23.4389 12.1274 23.5639C12.1998 23.6889 12.304 23.7916 12.4292 23.8615Z" stroke="#CC0033" stroke-width="1.17748" stroke-linecap="round" stroke-linejoin="round"/>
<path d="M1.67463 12.4844L6.24248 15.1217C6.30866 15.1594 6.38369 15.1789 6.45997 15.1783C6.53626 15.1776 6.61112 15.1568 6.67701 15.118L11.3363 12.3437C11.3999 12.3068 11.4528 12.2538 11.4896 12.19C11.5264 12.1263 11.5459 12.054 11.546 11.9805L11.619 6.55826C11.6197 6.48177 11.6003 6.40653 11.5627 6.34014C11.5251 6.27374 11.4707 6.21854 11.4049 6.18009L6.83707 3.54284C6.77088 3.5051 6.69586 3.48557 6.61957 3.48622C6.54328 3.48688 6.46842 3.50768 6.40254 3.54655L1.74323 6.32081C1.67964 6.35772 1.62677 6.41072 1.58996 6.47448C1.55315 6.53825 1.53368 6.61053 1.53351 6.68406L1.46058 12.1063C1.45986 12.1828 1.47927 12.258 1.51686 12.3244C1.55444 12.3908 1.60886 12.446 1.67463 12.4844Z" stroke="#CC0033" stroke-width="1.01607" stroke-linecap="round" stroke-linejoin="round"/>
<path d="M6.57107 14.8024L6.45993 9.40534L11.5139 6.30566" stroke="#CC0033" stroke-width="1.01607" stroke-linecap="round" stroke-linejoin="round"/>
<path d="M6.54084 9.45349L1.59926 6.45854" stroke="#CC0033" stroke-width="1.01607" stroke-linecap="round" stroke-linejoin="round"/>
<path d="M11.489 6.47583L6.51355 9.37803L1.56374 6.52025L6.5392 3.61805L11.489 6.47583Z" fill="#CC0033"/>
</g>
<defs>
<clipPath id="clip0_2047_766">
<rect width="32" height="32" fill="white"/>
</clipPath>
</defs>
</svg>
