<?xml version="1.0" encoding="utf-8"?><!-- Uploaded to: SVG Repo, www.svgrepo.com, Generator: SVG Repo Mixer Tools -->
<svg version="1.1" id="Uploaded to svgrepo.com" xmlns="http://www.w3.org/2000/svg" xmlns:xlink="http://www.w3.org/1999/xlink" 
	 width="800px" height="800px" viewBox="0 0 32 32" xml:space="preserve">
<style type="text/css">
	.feather_een{fill:#0B1719;}
</style>
<path class="feather_een" d="M11.5,9.5C11.5,9.224,11.724,9,12,9h5c0.276,0,0.5,0.224,0.5,0.5S17.276,10,17,10h-5
	C11.724,10,11.5,9.776,11.5,9.5z M17,13h-5c-0.276,0-0.5,0.224-0.5,0.5S11.724,14,12,14h5c0.276,0,0.5-0.224,0.5-0.5
	S17.276,13,17,13z M18,11h-7c-0.276,0-0.5,0.224-0.5,0.5S10.724,12,11,12h7c0.276,0,0.5-0.224,0.5-0.5S18.276,11,18,11z M28,4v24
	c0,1.657-1.343,3-3,3H7c-1.657,0-3-1.343-3-3V4c0-1.657,1.343-3,3-3h18C26.657,1,28,2.343,28,4z M22,30c1.103,0,2-0.897,2-2V4
	c0-1.103-0.897-2-2-2H7C5.897,2,5,2.897,5,4v24c0,1.103,0.897,2,2,2H22z M27,4c0-1.103-0.897-2-2-2h-0.779C24.7,2.532,25,3.228,25,4
	v24c0,0.772-0.3,1.468-0.779,2H25c1.103,0,2-0.897,2-2V4z"/>
</svg>